<?xml version="1.0" encoding="UTF-8" standalone="no"?>
<!-- Created with Inkscape (http://www.inkscape.org/) -->
<svg xmlns:inkscape="http://www.inkscape.org/namespaces/inkscape" xmlns:sodipodi="http://sodipodi.sourceforge.net/DTD/sodipodi-0.dtd" xmlns="http://www.w3.org/2000/svg" xmlns:svg="http://www.w3.org/2000/svg" xmlns:rdf="http://www.w3.org/1999/02/22-rdf-syntax-ns#" xmlns:cc="http://creativecommons.org/ns#" xmlns:dc="http://purl.org/dc/elements/1.1/" width="210mm" height="105mm" viewBox="0 0 210 105" version="1.1" id="svg8" inkscape:version="1.1.2 (b8e25be833, 2022-02-05)" sodipodi:docname="logo fully pathed.svg">
  <defs id="defs2"></defs>
  <metadata id="metadata5"></metadata>
  <g inkscape:label="Layer 1" inkscape:groupmode="layer" id="layer1">
    <path style="opacity:1;fill:#000000;fill-opacity:1;stroke:none;stroke-width:0.0876172;stroke-miterlimit:4;stroke-dasharray:none;stroke-opacity:1" d="m 43.339417,5.9802924 c -1.039998,0 -1.877404,0.83741 -1.877404,1.87741 v 9.2325096 a 38.094708,38.094708 0 0 0 -15.362887,8.86199 l -7.98866,-4.61212 c -0.900665,-0.52 -2.0447,-0.21388 -2.564701,0.68678 l -8.954492,15.50964 c -0.520001,0.90068 -0.213372,2.0447 0.687296,2.56471 l 8.00933,4.62401 a 38.094708,38.094708 0 0 0 -1.088305,8.85837 38.094708,38.094708 0 0 0 1.088821,8.85734 l -8.009846,4.62452 c -0.900668,0.52 -1.207297,1.66404 -0.687296,2.56471 l 8.954492,15.50964 c 0.520001,0.90066 1.664036,1.20731 2.564701,0.6873 l 8.01243,-4.62607 a 38.094708,38.094708 0 0 0 15.339117,8.88421 v 9.22373 c 0,1.039988 0.837406,1.877398 1.877404,1.877398 h 17.908984 c 1.040003,0 1.877407,-0.83741 1.877407,-1.877398 v -9.232 a 38.094708,38.094708 0 0 0 15.362885,-8.86251 l 7.989176,4.61264 c 0.900671,0.52001 2.044184,0.21336 2.564186,-0.6873 l 6.374804,-11.04118 h -2.99982 c -2.334079,0 -4.213176,-1.8791 -4.213176,-4.21318 v -32.60421 c 0,-2.33409 1.879097,-4.21318 4.213176,-4.21318 h 2.99982 l -6.374804,-11.04119 c -0.520002,-0.90066 -1.663515,-1.20678 -2.564186,-0.68678 l -8.011914,4.62556 A 38.094708,38.094708 0 0 0 63.125808,17.081422 V 7.8577024 c 0,-1.04 -0.837404,-1.87741 -1.877407,-1.87741 z m 8.954492,14.9505096 a 32.652608,32.652608 0 0 1 32.652787,32.65227 32.652608,32.652608 0 0 1 -32.652787,32.65279 32.652608,32.652608 0 0 1 -32.652788,-32.65279 32.652608,32.652608 0 0 1 32.652788,-32.65227 z m 0,0.80616 a 31.846369,31.846369 0 0 0 -31.846635,31.84611 31.846369,31.846369 0 0 0 31.846635,31.84664 31.846369,31.846369 0 0 0 31.846118,-31.84664 31.846369,31.846369 0 0 0 -31.846118,-31.84611 z m -12.417846,7.64501 h 30.303576 l -1.015442,9.84073 H 38.157306 Z m 125.938567,3.91707 v 29.0959 c 0,1.67018 0.29765,3.08405 0.89297,4.2416 0.59531,1.14102 1.34772,2.07533 2.25722,2.80293 0.90951,0.71107 1.88516,1.2237 2.92696,1.53789 1.05833,0.31419 2.05052,0.47129 2.97656,0.47129 h 2.87734 v -6.44922 h -2.87734 c -0.74414,0 -1.36426,-0.23151 -1.86035,-0.69453 -0.4961,-0.47956 -0.74414,-1.11621 -0.74414,-1.90996 v -29.0959 z m -71.635941,2.57969 c -0.46302,0 -0.89297,0.0827 -1.28984,0.24805 -0.39688,0.16535 -0.74414,0.39687 -1.0418,0.69453 -0.28112,0.29765 -0.50436,0.64492 -0.66972,1.04179 -0.16537,0.39688 -0.24805,0.81856 -0.24805,1.26503 v 29.07111 c 0,0.46302 0.0827,0.89296 0.24805,1.28983 0.16536,0.39688 0.3886,0.74415 0.66972,1.04181 0.29766,0.28112 0.64492,0.50436 1.0418,0.66972 0.39687,0.16537 0.82682,0.24805 1.28984,0.24805 h 24.482231 c 1.43867,0 2.6541,-0.25631 3.64629,-0.76895 0.99218,-0.52916 1.7942,-1.18235 2.40605,-1.95957 0.62839,-0.77721 1.07487,-1.62057 1.33945,-2.53007 0.28112,-0.90951 0.42168,-1.76114 0.42168,-2.55489 v -1.24023 c 0,-1.25677 -0.14056,-2.40606 -0.42168,-3.44785 -0.28112,-1.0418 -0.66145,-1.97611 -1.14101,-2.80293 -0.47956,-0.82682 -1.0418,-1.55443 -1.68672,-2.18281 -0.62839,-0.62839 -1.30638,-1.16582 -2.03398,-1.61231 0.84335,-1.1741 1.4552,-2.41432 1.83554,-3.7207 0.38034,-1.32292 0.57051,-2.55488 0.57051,-3.6959 v -1.21544 c 0,-1.43866 -0.26458,-2.65409 -0.79375,-3.64628 -0.51263,-0.99219 -1.16582,-1.7942 -1.95957,-2.40605 -0.77721,-0.62839 -1.62057,-1.08314 -2.53008,-1.36426 -0.9095,-0.28112 -1.76113,-0.42168 -2.55488,-0.42168 z m 93.364841,0 v 8.75605 h -8.38398 v 6.44922 h 8.38398 v 20.36465 h 6.52364 v -20.36465 h 11.26132 v -6.44922 h -11.26132 v -8.75605 z m -90.165031,6.44921 h 18.380271 c 0.89297,0 1.33945,0.46303 1.33945,1.38906 v 1.21544 c 0,0.84336 -0.13229,1.60404 -0.39687,2.28203 -0.24805,0.66146 -0.61185,1.23197 -1.09141,1.71152 -0.47956,0.47956 -1.05833,0.85163 -1.73633,1.11622 -0.67799,0.24804 -1.43867,0.37207 -2.28203,0.37207 H 99.958189 v 6.49882 h 14.535541 c 0.84336,0 1.60404,0.1323 2.28203,0.39688 0.678,0.24805 1.25677,0.61184 1.73633,1.0914 0.47956,0.47956 0.85163,1.05834 1.11621,1.73633 0.26458,0.66146 0.39687,1.41386 0.39687,2.25723 v 1.19062 c 0,0.34726 -0.0496,0.62012 -0.14882,0.81856 -0.0992,0.19844 -0.21498,0.339 -0.34727,0.42168 -0.13229,0.0827 -0.28112,0.13229 -0.44648,0.14883 -0.16537,0.0165 -0.30593,0.0248 -0.42168,0.0248 H 97.378499 Z m -59.533319,2.04949 h 9.45007 l -1.490351,4.02405 a 2.0038225,4.3952898 34.068052 0 1 1.956988,-1.42525 c 0.173395,-0.10432 0.355468,-0.19139 0.548804,-0.25579 0.312407,-0.15621 0.728859,-0.28653 1.249535,-0.39067 l -0.07803,8.66975 c -1.249632,0.26035 -2.186898,0.65083 -2.811714,1.17151 -0.624819,0.46861 -1.197562,1.35343 -1.718241,2.65514 h -10.07484 z m 101.97414,0.25735 c -0.89297,0 -1.86862,0.1571 -2.92696,0.47129 -1.05833,0.3142 -2.04225,0.83509 -2.95176,1.5627 -0.89296,0.71107 -1.64537,1.64538 -2.25722,2.80292 -0.59531,1.14102 -0.89297,2.53835 -0.89297,4.192 v 8.73125 c 0,1.67018 0.29766,3.08405 0.89297,4.2416 0.61185,1.14102 1.36426,2.07533 2.25722,2.80293 0.90951,0.71107 1.89343,1.2237 2.95176,1.53789 1.05834,0.31419 2.03399,0.47129 2.92696,0.47129 h 11.63339 c 0.61185,0 1.25677,-0.0662 1.93477,-0.19844 0.69453,-0.14883 1.37253,-0.37207 2.03398,-0.66972 0.678,-0.29767 1.32292,-0.678 1.93477,-1.14102 0.61185,-0.47956 1.14928,-1.05006 1.6123,-1.71152 0.46302,-0.678 0.83509,-1.45521 1.11621,-2.33164 0.28112,-0.89297 0.42168,-1.89343 0.42168,-3.00137 v -8.73125 c 0,-0.90951 -0.16536,-1.89342 -0.49609,-2.95176 -0.31419,-1.05833 -0.82682,-2.03399 -1.53789,-2.92695 -0.71107,-0.90951 -1.64538,-1.66192 -2.80293,-2.25723 -1.15755,-0.59531 -2.56315,-0.89297 -4.2168,-0.89297 z m -83.229549,1.30483 h 1.093473 c 2.39513,0 4.477885,0.49433 6.248199,1.48363 1.770311,0.93723 3.227879,2.21305 4.373377,3.82716 1.197562,1.56204 2.082906,3.4106 2.655649,5.5454 0.572747,2.08272 0.858864,4.26933 0.858864,6.56032 0,5.98782 -1.275307,10.59573 -3.826639,13.82396 -2.551332,3.22821 -6.690882,5.28501 -12.418365,6.17017 v -9.29401 c 1.197565,-0.46862 2.160794,-0.98944 2.889748,-1.56218 0.728951,-0.62482 1.275736,-1.32737 1.64021,-2.10839 0.364472,-0.8331 0.598668,-1.77036 0.702797,-2.81172 0.104132,-1.04136 0.156064,-2.23929 0.156064,-3.59306 0,-1.24963 -0.07789,-2.36916 -0.234095,-3.35845 -0.104132,-0.98929 -0.338323,-1.8222 -0.702799,-2.49907 -0.364475,-0.72897 -0.911257,-1.32768 -1.640211,-1.79628 -0.728951,-0.52069 -1.666216,-0.93712 -2.811714,-1.24953 v -9.05992 c 0.364477,-0.052 0.703035,-0.078 1.015442,-0.078 z m 83.279149,5.14439 h 11.58379 c 0.84336,0 1.48828,0.21498 1.93477,0.64492 0.44648,0.42995 0.66973,1.0914 0.66973,1.98438 v 8.68164 c 0,0.84336 -0.21498,1.48828 -0.64493,1.93477 -0.42994,0.44648 -1.08313,0.66972 -1.95957,0.66972 h -11.58379 c -0.85989,0 -1.51308,-0.22324 -1.95957,-0.66972 -0.44648,-0.44649 -0.66972,-1.09141 -0.66972,-1.93477 v -8.73125 c 0,-0.84337 0.22324,-1.48001 0.66972,-1.90996 0.44649,-0.44649 1.09968,-0.66973 1.95957,-0.66973 z m -96.322279,15.08383 0.07803,0.078 h -0.07803 c 0.156202,1.24963 0.312499,2.34319 0.468704,3.28042 0.208272,0.93722 0.49439,1.74415 0.858864,2.42104 0.416536,0.67688 0.989285,1.22366 1.718241,1.64021 0.728951,0.36448 1.744626,0.59866 3.046325,0.7028 v 9.13794 h -1.015441 c -2.447198,0 -4.608359,-0.41645 -6.482811,-1.24954 -1.822378,-0.88516 -3.41028,-2.0566 -4.76405,-3.51451 -1.3017,-1.50997 -2.342819,-3.28014 -3.12384,-5.31079 -0.781018,-2.03066 -1.275874,-4.21777 -1.484147,-6.56084 l 10.778155,-0.54673 z" id="rect4546" inkscape:connector-curvature="0"></path>
  </g>
</svg>
